<svg width="30" height="30" viewBox="0 0 30 30" fill="none" xmlns="http://www.w3.org/2000/svg">
<path d="M18.6275 5.23488C17.9134 5.10297 17.2576 5.55866 17.1217 6.25568C16.9857 6.9527 17.4428 7.63324 18.1375 7.76964C20.2289 8.17736 21.8437 9.79625 22.253 11.8948V11.8963C22.3696 12.5004 22.9014 12.9396 23.5138 12.9396C23.596 12.9396 23.6782 12.9321 23.7618 12.9171C24.4565 12.7777 24.9136 12.0987 24.7776 11.4001C24.1667 8.2658 21.7541 5.84496 18.6275 5.23488Z" fill="black"/>
<path d="M18.5337 0.0118946C18.1991 -0.0360724 17.8629 0.0628596 17.5955 0.275713C17.3207 0.491565 17.1489 0.803351 17.1115 1.15261C17.0324 1.85863 17.5418 2.49719 18.2469 2.57663C23.1094 3.11926 26.8888 6.90716 27.4356 11.7848C27.5087 12.4384 28.057 12.9315 28.7113 12.9315C28.7606 12.9315 28.8084 12.9285 28.8577 12.9225C29.1998 12.8851 29.5045 12.7157 29.7197 12.4459C29.9333 12.176 30.0304 11.8403 29.9915 11.497C29.3103 5.41119 24.6002 0.68793 18.5337 0.0118946Z" fill="black"/>
<path fill-rule="evenodd" clip-rule="evenodd" d="M13.5476 16.4586C19.5312 22.4405 20.8887 15.5201 24.6985 19.3272C28.3714 22.9991 30.4824 23.7348 25.8289 28.3871C25.246 28.8555 21.5424 34.4914 8.52691 21.4795C-4.49022 8.466 1.14238 4.75867 1.61095 4.17592C6.2758 -0.489231 6.99879 1.63407 10.6717 5.30599C14.4815 9.11474 7.56399 10.4766 13.5476 16.4586Z" fill="black"/>
</svg>
