<svg width="10" height="10" viewBox="0 0 10 10" fill="none" xmlns="http://www.w3.org/2000/svg">
<path d="M7.5 0H2.5C1.11929 0 0 1.11929 0 2.5V7.5C0 8.88071 1.11929 10 2.5 10H7.5C8.88071 10 10 8.88071 10 7.5V2.5C10 1.11929 8.88071 0 7.5 0Z" fill="white"/>
<path d="M6.99998 4.685C7.06168 5.10112 6.9906 5.52611 6.79685 5.89951C6.60311 6.2729 6.29655 6.5757 5.92079 6.76483C5.54503 6.95397 5.1192 7.0198 4.70387 6.95296C4.28854 6.88613 3.90486 6.69004 3.6074 6.39258C3.30993 6.09512 3.11384 5.71144 3.04701 5.2961C2.98018 4.88077 3.04601 4.45495 3.23514 4.07919C3.42427 3.70343 3.72707 3.39687 4.10047 3.20312C4.47387 3.00937 4.89885 2.93829 5.31498 3C5.73944 3.06294 6.1324 3.26073 6.43582 3.56415C6.73924 3.86757 6.93703 4.26054 6.99998 4.685Z" fill="white" stroke="#C69803" stroke-linecap="round" stroke-linejoin="round"/>
<path d="M7.75 2.25H7.75592" stroke="#C69803" stroke-linecap="round" stroke-linejoin="round"/>
</svg>
