<svg width="11" height="11" viewBox="0 0 11 11" fill="none" xmlns="http://www.w3.org/2000/svg">
<path d="M7.69999 3.29999C8.57521 3.29999 9.41458 3.64767 10.0334 4.26654C10.6523 4.88541 11 5.72477 11 6.59999V10.45H8.79999V6.59999C8.79999 6.30825 8.6841 6.02846 8.47781 5.82217C8.27152 5.61588 7.99173 5.49999 7.69999 5.49999C7.40826 5.49999 7.12847 5.61588 6.92218 5.82217C6.71589 6.02846 6.59999 6.30825 6.59999 6.59999V10.45H4.39999V6.59999C4.39999 5.72477 4.74767 4.88541 5.36654 4.26654C5.98541 3.64767 6.82478 3.29999 7.69999 3.29999Z" fill="white"/>
<path d="M2.2 3.85001H0V10.45H2.2V3.85001Z" fill="white"/>
<path d="M1.1 2.2C1.70751 2.2 2.2 1.70751 2.2 1.1C2.2 0.492487 1.70751 0 1.1 0C0.492487 0 0 0.492487 0 1.1C0 1.70751 0.492487 2.2 1.1 2.2Z" fill="white"/>
</svg>
