<svg width="7" height="7" viewBox="0 0 7 7" fill="none" xmlns="http://www.w3.org/2000/svg">
<path d="M6.98592 5.24084V6.29463C6.98631 6.39245 6.96627 6.48928 6.92708 6.57892C6.88789 6.66855 6.83041 6.74901 6.75833 6.81515C6.68624 6.88128 6.60114 6.93163 6.50846 6.96297C6.41579 6.99431 6.3176 7.00595 6.22017 6.99715C5.13928 6.8797 4.10101 6.51035 3.18879 5.91878C2.34008 5.37947 1.62053 4.65992 1.08122 3.81121C0.487583 2.89485 0.11815 1.85153 0.00285108 0.765782C-0.00592675 0.668647 0.00561723 0.570749 0.0367479 0.478319C0.0678785 0.38589 0.117914 0.300955 0.183668 0.228923C0.249423 0.156891 0.329455 0.0993388 0.41867 0.0599317C0.507886 0.0205247 0.604329 0.000125903 0.70186 3.40556e-05H1.75564C1.92611 -0.00164372 2.09137 0.0587222 2.22063 0.16988C2.34988 0.281038 2.43431 0.435403 2.45816 0.604203C2.50264 0.941436 2.58513 1.27256 2.70405 1.59125C2.75131 1.71697 2.76153 1.85361 2.73352 1.98497C2.7055 2.11633 2.64042 2.2369 2.54598 2.33241L2.09988 2.77851C2.59992 3.6579 3.32805 4.38603 4.20744 4.88607L4.65354 4.43997C4.74905 4.34553 4.86962 4.28044 5.00098 4.25243C5.13234 4.22441 5.26898 4.23464 5.3947 4.2819C5.71339 4.40082 6.04451 4.48331 6.38175 4.52779C6.55238 4.55186 6.70821 4.6378 6.81961 4.76928C6.931 4.90075 6.99019 5.06858 6.98592 5.24084Z" fill="white"/>
</svg>
